<svg width="24" height="24" viewBox="0 0 24 24" fill="none" xmlns="http://www.w3.org/2000/svg">
<g opacity="0.4" clip-path="url(#clip0_5_53)">
<path d="M12 0C5.37262 0 0 5.3724 0 12C0 18.6276 5.37262 24 12 24C18.6274 24 24 18.6276 24 12C24 5.3724 18.6273 0 12 0ZM15.0136 12C15.0136 15.0113 12.5638 17.4612 9.55244 17.4612C6.54109 17.4612 4.09124 15.0113 4.09124 12C4.09124 8.98866 6.54109 6.5388 9.55244 6.5388C10.7674 6.5388 11.9184 6.92989 12.881 7.66985L11.6131 9.3192C11.0173 8.86124 10.3047 8.61916 9.55244 8.61916C7.68829 8.61916 6.17171 10.1357 6.17171 11.9999C6.17171 13.864 7.68829 15.3806 9.55244 15.3806C11.0539 15.3806 12.3298 14.3968 12.7695 13.0401H9.55244V10.9597H15.0136V12ZM20.7633 12.6801H19.1989V14.2447H17.8385V12.6801H16.2748V11.3198H17.8385V9.75535H19.1989V11.3199H20.7633V12.6801Z" fill="white"/>
</g>
<defs>
<clipPath id="clip0_5_53">
<rect width="24" height="24" fill="white"/>
</clipPath>
</defs>
</svg>