<svg width="24" height="24" viewBox="0 0 24 24" fill="none" xmlns="http://www.w3.org/2000/svg">
<g opacity="0.4" clip-path="url(#clip0_42_109)">
<path d="M10.3357 13.936L13.6641 12.005L10.3357 10.0645V13.936Z" fill="white"/>
<path d="M12 0C9.62664 0 7.30656 0.703788 5.33317 2.02236C3.35978 3.34094 1.8217 5.21509 0.913452 7.4078C0.00519939 9.60051 -0.232441 12.0133 0.230582 14.3411C0.693605 16.6689 1.8365 18.8071 3.51473 20.4853C5.19296 22.1635 7.33116 23.3064 9.65893 23.7694C11.9867 24.2324 14.3995 23.9948 16.5922 23.0866C18.7849 22.1783 20.6591 20.6402 21.9777 18.6668C23.2962 16.6935 24 14.3734 24 12C24 8.8174 22.7357 5.76516 20.4853 3.51472C18.2349 1.26428 15.1826 0 12 0V0ZM18.3158 14.1237C18.316 14.4375 18.2544 14.7484 18.1344 15.0384C18.0145 15.3284 17.8385 15.5919 17.6167 15.8139C17.3948 16.0359 17.1314 16.2121 16.8414 16.3322C16.5515 16.4524 16.2407 16.5142 15.9269 16.5142H8.07317C7.75932 16.5142 7.44854 16.4524 7.1586 16.3322C6.86865 16.2121 6.60523 16.0359 6.38337 15.8139C6.16152 15.5919 5.98558 15.3284 5.86562 15.0384C5.74565 14.7484 5.68402 14.4375 5.68422 14.1237V9.87632C5.68402 9.56246 5.74565 9.25164 5.86562 8.96162C5.98558 8.6716 6.16152 8.40806 6.38337 8.18605C6.60523 7.96405 6.86865 7.78794 7.1586 7.66779C7.44854 7.54763 7.75932 7.48579 8.07317 7.48579H15.9269C16.2407 7.48579 16.5515 7.54763 16.8414 7.66779C17.1314 7.78794 17.3948 7.96405 17.6167 8.18605C17.8385 8.40806 18.0145 8.6716 18.1344 8.96162C18.2544 9.25164 18.316 9.56246 18.3158 9.87632V14.1237Z" fill="white"/>
</g>
<defs>
<clipPath id="clip0_42_109">
<rect width="24" height="24" fill="white"/>
</clipPath>
</defs>
</svg>
